<?xml version="1.0" encoding="UTF-8" standalone="no"?><!DOCTYPE svg PUBLIC "-//W3C//DTD SVG 1.1//EN" "http://www.w3.org/Graphics/SVG/1.1/DTD/svg11.dtd"><svg width="100%" height="100%" viewBox="0 0 158 32" version="1.1" xmlns="http://www.w3.org/2000/svg" xmlns:xlink="http://www.w3.org/1999/xlink" xml:space="preserve" xmlns:serif="http://www.serif.com/" style="fill-rule:evenodd;clip-rule:evenodd;stroke-linejoin:round;stroke-miterlimit:1.41421;"><rect id="_32_-moj_mir_w" serif:id="32_@moj_mir_w" x="0" y="0" width="158" height="32" style="fill:none;"/><clipPath id="_clip1"><rect x="0" y="0" width="158" height="32"/></clipPath><g clip-path="url(#_clip1)"><g id="_32_-moj_mir_w1" serif:id="32_@moj_mir_w"><g><path d="M40.86,8.96l2.477,0l5.984,7.842l5.985,-7.842l2.476,0l0,14.593l-2.981,0l0,-9.254l-5.48,7.319c0,0 -5.48,-7.319 -5.48,-7.319l0,9.254l-2.981,0l0,-14.593Z" style="fill:#fff;"/><path d="M104.706,8.96l2.477,0l5.984,7.842l5.985,-7.842l2.477,0l0,14.593l-2.982,0l0,-9.254l-5.48,7.319c0,0 -5.48,-7.319 -5.48,-7.319l0,9.254l-2.981,0l0,-14.593Z" style="fill:#fff;"/><path d="M68.137,8.585c4.234,0 7.671,3.438 7.671,7.671c0,4.234 -3.437,7.671 -7.671,7.671c-4.234,0 -7.671,-3.437 -7.671,-7.671c0,-4.233 3.437,-7.671 7.671,-7.671Zm0,2.98c2.589,0 4.691,2.102 4.691,4.691c0,2.589 -2.102,4.691 -4.691,4.691c-2.589,0 -4.691,-2.102 -4.691,-4.691c0,-2.589 2.102,-4.691 4.691,-4.691Z" style="fill:#fff;"/><path d="M90.212,3.453c0,2.626 -2.132,4.758 -4.757,4.758c-2.626,0 -4.758,-2.132 -4.758,-4.758l2.595,0c0,1.194 0.969,2.162 2.163,2.162c1.193,0 2.162,-0.968 2.162,-2.162l2.595,0Z" style="fill:#fff;"/><path d="M80.968,23.553l-2.476,0l0,-14.593l2.981,0l0,9.743l8.468,-9.743l2.477,0l0,14.593l-2.982,0l0,-9.54l-8.468,9.54Z" style="fill:#fff;"/><path d="M127.419,23.553l-2.477,0l0,-14.593l2.981,0l0,9.743l8.468,-9.743l2.477,0l0,14.593l-2.981,0l0,-9.54l-8.468,9.54Z" style="fill:#fff;"/><path d="M142.181,28.696l2.981,-0.005l0,-6.734c1.069,1.21 2.951,1.97 4.721,1.97c4.234,0 7.671,-3.437 7.671,-7.671c0,-4.233 -3.437,-7.671 -7.671,-7.671c-1.77,0 -3.553,0.667 -4.721,1.846l0,-1.471l-2.981,0l0,19.736Zm7.605,-17.045c-2.611,0 -4.664,1.868 -4.664,4.605c0,2.738 2.053,4.621 4.664,4.621c2.61,0 4.594,-2.01 4.594,-4.621c0,-2.61 -1.984,-4.605 -4.594,-4.605Z" style="fill:#fff;"/></g><path d="M20.813,16c0,2.654 -2.159,4.813 -4.813,4.813c-2.654,0 -4.813,-2.159 -4.813,-4.813c0,-2.654 2.159,-4.813 4.813,-4.813c2.654,0 4.813,2.159 4.813,4.813m-4.813,-16c-8.822,0 -16,7.178 -16,16c0,8.822 7.178,16 16,16c3.232,0 6.349,-0.962 9.013,-2.783l0.046,-0.032l-2.156,-2.506l-0.036,0.024c-2.051,1.319 -4.426,2.017 -6.867,2.017c-7.014,0 -12.72,-5.706 -12.72,-12.72c0,-7.014 5.706,-12.72 12.72,-12.72c7.014,0 12.72,5.706 12.72,12.72c0,0.909 -0.101,1.829 -0.3,2.734c-0.402,1.651 -1.558,2.157 -2.426,2.09c-0.873,-0.071 -1.894,-0.693 -1.901,-2.215l0,-1.241l0,-1.368c0,-4.463 -3.63,-8.093 -8.093,-8.093c-4.463,0 -8.093,3.63 -8.093,8.093c0,4.463 3.63,8.093 8.093,8.093c2.168,0 4.201,-0.848 5.734,-2.389c0.891,1.387 2.344,2.257 3.997,2.389c0.142,0.012 0.287,0.018 0.431,0.018c1.163,0 2.317,-0.389 3.247,-1.096c0.959,-0.728 1.675,-1.781 2.071,-3.046c0.063,-0.204 0.179,-0.672 0.18,-0.675l0.003,-0.017c0.233,-1.015 0.337,-2.027 0.337,-3.277c0,-8.822 -7.178,-16 -16,-16" style="fill:#ff9e00;fill-rule:nonzero;"/></g></g></svg>