<?xml version="1.0" encoding="UTF-8" standalone="no"?><!DOCTYPE svg PUBLIC "-//W3C//DTD SVG 1.1//EN" "http://www.w3.org/Graphics/SVG/1.1/DTD/svg11.dtd"><svg width="100%" height="100%" viewBox="0 0 106 32" version="1.1" xmlns="http://www.w3.org/2000/svg" xmlns:xlink="http://www.w3.org/1999/xlink" xml:space="preserve" xmlns:serif="http://www.serif.com/" style="fill-rule:evenodd;clip-rule:evenodd;stroke-linejoin:round;stroke-miterlimit:1.41421;"><rect id="_32_-games_w" serif:id="32_@games_w" x="0" y="0" width="106" height="32" style="fill:none;"/><g><g><path d="M91.418,13.389l3.732,0c2.723,0.001 4.934,2.346 4.934,5.069c0,2.723 -2.211,5.094 -4.934,5.094l-3.732,0l0,0.001l-2.982,0l0,-0.001l0,-10.072c0,0 0,-4.52 0,-4.52l2.982,0l0,4.429Zm3.377,2.867l-1.243,0c-0.037,0 -0.074,0.001 -0.11,0.003l-2.05,0l0,4.424l3.403,0c1.221,0 2.123,-0.992 2.123,-2.213c0,-1.222 -0.902,-2.214 -2.123,-2.214Z" style="fill:#fff;"/><rect x="101.832" y="8.96" width="2.981" height="14.593" style="fill:#fff;"/><path d="M58.077,8.96l10.269,0l0,2.87l-7.237,0l0,11.723l-3.032,0l0,-14.593Z" style="fill:#fff;"/><path d="M43.337,23.553l-2.477,0l0,-14.593l2.981,0l0,9.743l8.468,-9.743l2.477,0l0,14.593l-2.982,0l0,-9.54l-8.467,9.54Z" style="fill:#fff;"/><path d="M70.519,28.685l2.981,-0.005l0,-6.734c1.068,1.21 2.95,1.97 4.721,1.97c4.234,0 7.671,-3.437 7.671,-7.671c0,-4.233 -3.437,-7.671 -7.671,-7.671c-1.771,0 -3.553,0.667 -4.721,1.846l0,-1.471l-2.981,0l0,19.736Zm7.605,-17.045c-2.611,0 -4.665,1.868 -4.665,4.605c0,2.738 2.054,4.621 4.665,4.621c2.61,0 4.594,-2.01 4.594,-4.621c0,-2.61 -1.984,-4.605 -4.594,-4.605Z" style="fill:#fff;"/><path d="M20.813,16c0,2.654 -2.159,4.813 -4.813,4.813c-2.654,0 -4.813,-2.159 -4.813,-4.813c0,-2.654 2.159,-4.813 4.813,-4.813c2.654,0 4.813,2.159 4.813,4.813m-4.813,-16c-8.822,0 -16,7.178 -16,16c0,8.822 7.178,16 16,16c3.232,0 6.349,-0.962 9.013,-2.783l0.046,-0.032l-2.156,-2.506l-0.036,0.024c-2.051,1.319 -4.426,2.017 -6.867,2.017c-7.014,0 -12.72,-5.706 -12.72,-12.72c0,-7.014 5.706,-12.72 12.72,-12.72c7.014,0 12.72,5.706 12.72,12.72c0,0.909 -0.101,1.829 -0.3,2.734c-0.402,1.651 -1.558,2.157 -2.426,2.09c-0.873,-0.071 -1.894,-0.693 -1.901,-2.215l0,-1.16l0,-1.449c0,-4.463 -3.63,-8.093 -8.093,-8.093c-4.463,0 -8.093,3.63 -8.093,8.093c0,4.463 3.63,8.093 8.093,8.093c2.168,0 4.201,-0.848 5.734,-2.389c0.891,1.387 2.344,2.257 3.997,2.389c0.142,0.012 0.287,0.018 0.431,0.018c1.163,0 2.317,-0.389 3.247,-1.096c0.959,-0.728 1.675,-1.781 2.071,-3.046c0.063,-0.204 0.179,-0.672 0.18,-0.675l0.003,-0.017c0.233,-1.015 0.337,-2.027 0.337,-3.277c0,-8.822 -7.178,-16 -16,-16" style="fill:#ff9e00;fill-rule:nonzero;"/></g></g></svg>
