<svg xmlns="http://www.w3.org/2000/svg" width="17" height="17" viewBox="0 0 17 17"><path fill="#828282" d="M5.666 9.696l.014-.003c-.08.012-.07.01-.014.003z"/><path fill="#828282" d="M13.93 11.239c-.578-.996-1.276-1.316-2.723-1.544.015.002-.57-.088-.747-.117l-.149-.025a4.067 4.067 0 0 1-.001-.548q.003-.053.009-.103a5.447 5.447 0 0 0 .451-.422 4.103 4.103 0 0 0 .889-1.353 2.288 2.288 0 0 0 .504-1.08 1.64 1.64 0 0 0-.31-1.398A3.254 3.254 0 0 0 8.47 1.992a3.276 3.276 0 0 0-3.394 2.656 1.64 1.64 0 0 0-.312 1.398 2.296 2.296 0 0 0 .53 1.111 5.425 5.425 0 0 0 1.313 1.736q.006.054.01.112a4.072 4.072 0 0 1-.001.546l-.158.026c-.142.023-.643.097-.792.119-1.555.232-2.285.541-2.867 1.543a2.687 2.687 0 0 0-.344 1.567v.398l.272.288a3.922 3.922 0 0 0 1.414.841 12.1 12.1 0 0 0 4.33.662 11.83 11.83 0 0 0 4.304-.664 3.718 3.718 0 0 0 1.395-.86l.253-.284v-.38a2.914 2.914 0 0 0-.493-1.568zm-5.46 2.756c-3.894 0-5.015-1.189-5.015-1.189a1.92 1.92 0 0 1 .209-1.065c.653-1.124 1.899-.911 3.851-1.346a5.181 5.181 0 0 0 0-2.06 4.457 4.457 0 0 1-1.369-1.728 1.434 1.434 0 0 1-.397-.732c-.08-.455.056-.606.256-.614A2.363 2.363 0 0 1 8.47 2.992a2.349 2.349 0 0 1 2.452 2.269c.2.008.335.159.256.614a1.434 1.434 0 0 1-.398.732 3.665 3.665 0 0 1-1.368 1.729 5.181 5.181 0 0 0 0 2.06c1.952.434 3 .221 3.654 1.345a2.07 2.07 0 0 1 .357 1.065s-1.058 1.19-4.953 1.19z"/></svg>