<svg xmlns="http://www.w3.org/2000/svg" xmlns:xlink="http://www.w3.org/1999/xlink" preserveAspectRatio="xMidYMid" width="593" height="616" viewBox="0 0 593 616">
  <defs>
    <style>
      .cls-1 {
        fill: #cfdae8;
        fill-rule: evenodd;
      }
    </style>
  </defs>
  <path d="M304.988,0.011 C312.815,0.349 320.578,1.001 328.254,1.947 L591.141,269.315 C592.038,277.112 592.691,285.008 593.012,293.001 L304.988,0.011 ZM392.984,17.379 L575.947,203.487 C579.475,213.558 582.501,223.900 584.982,234.438 L362.544,8.179 C372.894,10.723 383.062,13.790 392.984,17.379 ZM550.938,149.437 L446.124,42.827 C489.170,68.939 525.267,105.653 550.938,149.437 ZM592.936,321.538 C592.615,328.291 592.038,334.991 591.311,341.624 L301.013,46.364 L301.013,46.377 L261.282,5.942 C267.707,5.094 274.219,4.442 280.763,4.006 L291.987,15.423 L291.987,15.411 L592.936,321.538 ZM291.987,65.795 L587.495,366.376 C586.318,372.336 584.982,378.252 583.495,384.093 L301.013,96.750 L301.013,96.750 L220.128,14.490 C225.805,12.881 231.525,11.446 237.310,10.184 L291.987,65.796 L291.987,65.795 ZM301.013,125.362 L576.941,406.039 C575.145,411.388 573.199,416.653 571.103,421.862 L301.013,147.134 L301.013,147.135 L183.421,27.518 C188.469,25.322 193.600,23.299 198.796,21.407 L301.013,125.353 L301.013,125.362 ZM301.013,175.757 L562.378,441.589 C560.038,446.408 557.577,451.193 555.001,455.847 L291.987,188.327 L291.987,188.319 L150.373,44.310 C154.927,41.612 159.547,39.068 164.240,36.632 L301.013,175.748 L301.013,175.757 ZM301.013,226.133 L544.373,473.671 C541.562,478.055 538.653,482.339 535.628,486.537 L291.987,238.723 L291.987,238.713 L120.531,64.320 C124.637,61.232 128.817,58.209 133.051,55.294 L301.013,226.122 L301.013,226.133 ZM291.987,267.325 L523.299,502.621 C520.071,506.569 516.713,510.430 513.291,514.214 L301.013,298.279 L301.013,298.290 L93.683,87.419 C97.339,83.852 101.104,80.438 104.942,77.066 L291.987,267.325 L291.987,267.325 ZM291.987,317.709 L499.317,528.581 C495.660,532.148 491.896,535.562 488.058,538.934 L301.013,348.675 L301.013,348.675 L69.701,113.379 C72.929,109.431 76.287,105.570 79.709,101.786 L291.987,317.721 L291.987,317.709 ZM301.013,377.287 L472.469,551.680 C468.363,554.768 464.183,557.791 459.949,560.705 L291.987,389.878 L291.987,389.867 L48.627,142.329 C51.438,137.945 54.347,133.661 57.372,129.463 L301.013,377.276 L301.013,377.287 ZM301.013,427.681 L442.627,571.690 C438.073,574.387 433.453,576.932 428.760,579.368 L291.987,440.251 L291.987,440.243 L30.621,174.411 C32.962,169.592 35.422,164.807 37.999,160.153 L301.013,427.672 L301.013,427.681 ZM291.987,468.865 L409.579,588.481 C404.531,590.677 399.400,592.701 394.203,594.593 L291.987,490.647 L291.987,490.638 L16.059,209.961 C17.855,204.611 19.801,199.347 21.896,194.138 L291.987,468.866 L291.987,468.865 ZM291.987,519.250 L372.872,601.510 C367.195,603.119 361.475,604.554 355.690,605.816 L301.013,550.203 L301.013,550.204 L5.505,249.624 C6.682,243.664 8.018,237.748 9.505,231.907 L291.987,519.250 L291.987,519.250 ZM291.987,569.623 L331.718,610.058 C325.292,610.905 318.781,611.558 312.237,611.993 L301.013,600.577 L301.013,600.589 L0.064,294.462 C0.384,287.709 0.961,281.009 1.688,274.375 L291.987,569.636 L291.987,569.623 ZM264.746,614.053 L1.859,346.685 C0.961,338.888 0.309,330.992 -0.012,322.999 L288.012,615.988 C280.185,615.651 272.422,614.999 264.746,614.053 ZM200.016,598.620 L17.053,412.513 C13.525,402.442 10.499,392.100 8.018,381.562 L230.456,607.821 C220.106,605.277 209.938,602.210 200.016,598.620 ZM42.062,466.562 L146.876,573.173 C103.830,547.061 67.733,510.347 42.062,466.562 Z" class="cls-1"/>
</svg>
