<svg xmlns="http://www.w3.org/2000/svg" width="160.28" height="10.19" viewBox="0 0 160.28 10.19">
  <defs>
    <style>
      .cls-1 {
        fill: #fff;
        fill-rule: evenodd;
        opacity: 0.25;
      }
    </style>
  </defs>
  <path id="bg7777777.svg" class="cls-1" d="M1354.06,1381.58a1.609,1.609,0,0,1,1.61-1.61h0a1.609,1.609,0,0,1,1.61,1.61h0a1.607,1.607,0,0,1-1.61,1.6h0a1.607,1.607,0,0,1-1.61-1.6h0Zm-11.63,0a1.609,1.609,0,0,1,1.61-1.61h0a1.6,1.6,0,0,1,1.6,1.61h0a1.6,1.6,0,0,1-1.6,1.6h0a1.607,1.607,0,0,1-1.61-1.6h0Zm-11.64,0a1.615,1.615,0,0,1,1.61-1.61h0a1.609,1.609,0,0,1,1.61,1.61h0a1.607,1.607,0,0,1-1.61,1.6h0a1.613,1.613,0,0,1-1.61-1.6h0Zm-11.63,0a1.609,1.609,0,0,1,1.61-1.61h0a1.609,1.609,0,0,1,1.61,1.61h0a1.607,1.607,0,0,1-1.61,1.6h0a1.607,1.607,0,0,1-1.61-1.6h0Zm-11.63,0a1.609,1.609,0,0,1,1.61-1.61h0a1.607,1.607,0,0,1,1.6,1.61h0a1.6,1.6,0,0,1-1.6,1.6h0a1.607,1.607,0,0,1-1.61-1.6h0Zm-11.64,0a1.609,1.609,0,0,1,1.61-1.61h0a1.609,1.609,0,0,1,1.61,1.61h0a1.607,1.607,0,0,1-1.61,1.6h0a1.607,1.607,0,0,1-1.61-1.6h0Zm-11.63,0a1.609,1.609,0,0,1,1.61-1.61h0a1.607,1.607,0,0,1,1.6,1.61h0a1.6,1.6,0,0,1-1.6,1.6h0a1.607,1.607,0,0,1-1.61-1.6h0Zm-11.64,0a1.609,1.609,0,0,1,1.61-1.61h0a1.609,1.609,0,0,1,1.61,1.61h0a1.607,1.607,0,0,1-1.61,1.6h0a1.607,1.607,0,0,1-1.61-1.6h0Zm-11.63,0a1.609,1.609,0,0,1,1.61-1.61h0a1.609,1.609,0,0,1,1.61,1.61h0a1.607,1.607,0,0,1-1.61,1.6h0a1.607,1.607,0,0,1-1.61-1.6h0Zm-11.64,0a1.609,1.609,0,0,1,1.61-1.61h0a1.609,1.609,0,0,1,1.61,1.61h0a1.607,1.607,0,0,1-1.61,1.6h0a1.607,1.607,0,0,1-1.61-1.6h0Zm-11.63,0a1.609,1.609,0,0,1,1.61-1.61h0a1.609,1.609,0,0,1,1.61,1.61h0a1.607,1.607,0,0,1-1.61,1.6h0a1.607,1.607,0,0,1-1.61-1.6h0Zm-11.63,0a1.607,1.607,0,0,1,1.6-1.61h0a1.609,1.609,0,0,1,1.61,1.61h0a1.607,1.607,0,0,1-1.61,1.6h0a1.6,1.6,0,0,1-1.6-1.6h0Zm-11.64,0a1.609,1.609,0,0,1,1.61-1.61h0a1.609,1.609,0,0,1,1.61,1.61h0a1.607,1.607,0,0,1-1.61,1.6h0a1.607,1.607,0,0,1-1.61-1.6h0Zm-11.63,0a1.609,1.609,0,0,1,1.61-1.61h0a1.607,1.607,0,0,1,1.6,1.61h0a1.6,1.6,0,0,1-1.6,1.6h0a1.607,1.607,0,0,1-1.61-1.6h0Zm145.43-6.98a1.609,1.609,0,0,1,1.61-1.61h0a1.607,1.607,0,0,1,1.6,1.61h0a1.6,1.6,0,0,1-1.6,1.6h0a1.607,1.607,0,0,1-1.61-1.6h0Zm-11.64,0a1.609,1.609,0,0,1,1.61-1.61h0a1.609,1.609,0,0,1,1.61,1.61h0a1.607,1.607,0,0,1-1.61,1.6h0a1.607,1.607,0,0,1-1.61-1.6h0Zm-11.63,0a1.609,1.609,0,0,1,1.61-1.61h0a1.607,1.607,0,0,1,1.6,1.61h0a1.6,1.6,0,0,1-1.6,1.6h0a1.607,1.607,0,0,1-1.61-1.6h0Zm-11.64,0a1.609,1.609,0,0,1,1.61-1.61h0a1.609,1.609,0,0,1,1.61,1.61h0a1.607,1.607,0,0,1-1.61,1.6h0a1.607,1.607,0,0,1-1.61-1.6h0Zm-11.63,0a1.609,1.609,0,0,1,1.61-1.61h0a1.609,1.609,0,0,1,1.61,1.61h0a1.607,1.607,0,0,1-1.61,1.6h0a1.607,1.607,0,0,1-1.61-1.6h0Zm-11.64,0a1.615,1.615,0,0,1,1.61-1.61h0a1.609,1.609,0,0,1,1.61,1.61h0a1.607,1.607,0,0,1-1.61,1.6h0a1.613,1.613,0,0,1-1.61-1.6h0Zm-11.63,0a1.609,1.609,0,0,1,1.61-1.61h0a1.609,1.609,0,0,1,1.61,1.61h0a1.607,1.607,0,0,1-1.61,1.6h0a1.607,1.607,0,0,1-1.61-1.6h0Zm-11.63,0a1.607,1.607,0,0,1,1.6-1.61h0a1.609,1.609,0,0,1,1.61,1.61h0a1.607,1.607,0,0,1-1.61,1.6h0a1.6,1.6,0,0,1-1.6-1.6h0Zm-11.64,0a1.609,1.609,0,0,1,1.61-1.61h0a1.609,1.609,0,0,1,1.61,1.61h0a1.607,1.607,0,0,1-1.61,1.6h0a1.607,1.607,0,0,1-1.61-1.6h0Zm-11.63,0a1.609,1.609,0,0,1,1.61-1.61h0a1.607,1.607,0,0,1,1.6,1.61h0a1.6,1.6,0,0,1-1.6,1.6h0a1.607,1.607,0,0,1-1.61-1.6h0Zm-11.64,0a1.609,1.609,0,0,1,1.61-1.61h0a1.609,1.609,0,0,1,1.61,1.61h0a1.607,1.607,0,0,1-1.61,1.6h0a1.607,1.607,0,0,1-1.61-1.6h0Zm-11.63,0a1.609,1.609,0,0,1,1.61-1.61h0a1.615,1.615,0,0,1,1.61,1.61h0a1.613,1.613,0,0,1-1.61,1.6h0a1.607,1.607,0,0,1-1.61-1.6h0Zm-11.63,0a1.6,1.6,0,0,1,1.6-1.61h0a1.609,1.609,0,0,1,1.61,1.61h0a1.607,1.607,0,0,1-1.61,1.6h0a1.6,1.6,0,0,1-1.6-1.6h0Zm-11.64,0a1.609,1.609,0,0,1,1.61-1.61h0a1.609,1.609,0,0,1,1.61,1.61h0a1.607,1.607,0,0,1-1.61,1.6h0a1.607,1.607,0,0,1-1.61-1.6h0Z" transform="translate(-1197 -1373)"/>
</svg>
