<svg xmlns="http://www.w3.org/2000/svg" width="303" height="150" viewBox="0 0 303 150">
  <defs>
    <style>
      .cls-1 {
        fill: #5f49f3;
        fill-rule: evenodd;
      }
    </style>
  </defs>
  <path id="Ellipse.svg" class="cls-1" d="M1326.86,930a1.834,1.834,0,1,1-1.86,1.833A1.854,1.854,0,0,1,1326.86,930Zm13.06,0a1.834,1.834,0,1,1-1.87,1.833A1.845,1.845,0,0,1,1339.92,930Zm13.05,0a1.834,1.834,0,1,1-1.86,1.833A1.854,1.854,0,0,1,1352.97,930Zm13.06,0a1.834,1.834,0,1,1-1.87,1.833A1.845,1.845,0,0,1,1366.03,930Zm13.05,0a1.834,1.834,0,1,1-1.86,1.833A1.854,1.854,0,0,1,1379.08,930Zm13.06,0a1.834,1.834,0,1,1-1.87,1.833A1.845,1.845,0,0,1,1392.14,930Zm-65.28,9.778a1.833,1.833,0,1,1-1.86,1.833A1.854,1.854,0,0,1,1326.86,939.778Zm13.06,0a1.833,1.833,0,1,1-1.87,1.833A1.845,1.845,0,0,1,1339.92,939.778Zm13.05,0a1.833,1.833,0,1,1-1.86,1.833A1.854,1.854,0,0,1,1352.97,939.778Zm13.06,0a1.833,1.833,0,1,1-1.87,1.833A1.845,1.845,0,0,1,1366.03,939.778Zm13.05,0a1.833,1.833,0,1,1-1.86,1.833A1.854,1.854,0,0,1,1379.08,939.778Zm13.06,0a1.833,1.833,0,1,1-1.87,1.833A1.845,1.845,0,0,1,1392.14,939.778Zm-65.28,9.778a1.833,1.833,0,1,1-1.86,1.833A1.853,1.853,0,0,1,1326.86,949.556Zm13.06,0a1.833,1.833,0,1,1-1.87,1.833A1.844,1.844,0,0,1,1339.92,949.556Zm13.05,0a1.833,1.833,0,1,1-1.86,1.833A1.853,1.853,0,0,1,1352.97,949.556Zm13.06,0a1.833,1.833,0,1,1-1.87,1.833A1.844,1.844,0,0,1,1366.03,949.556Zm13.05,0a1.833,1.833,0,1,1-1.86,1.833A1.853,1.853,0,0,1,1379.08,949.556Zm13.06,0a1.833,1.833,0,1,1-1.87,1.833A1.844,1.844,0,0,1,1392.14,949.556Zm-65.28,9.777a1.834,1.834,0,1,1-1.86,1.834A1.854,1.854,0,0,1,1326.86,959.333Zm13.06,0a1.834,1.834,0,1,1-1.87,1.834A1.845,1.845,0,0,1,1339.92,959.333Zm13.05,0a1.834,1.834,0,1,1-1.86,1.834A1.854,1.854,0,0,1,1352.97,959.333Zm13.06,0a1.834,1.834,0,1,1-1.87,1.834A1.845,1.845,0,0,1,1366.03,959.333Zm13.05,0a1.834,1.834,0,1,1-1.86,1.834A1.854,1.854,0,0,1,1379.08,959.333Zm13.06,0a1.834,1.834,0,1,1-1.87,1.834A1.845,1.845,0,0,1,1392.14,959.333ZM1404.86,930a1.834,1.834,0,1,1-1.86,1.833A1.854,1.854,0,0,1,1404.86,930Zm13.06,0a1.834,1.834,0,1,1-1.87,1.833A1.845,1.845,0,0,1,1417.92,930Zm13.05,0a1.834,1.834,0,1,1-1.86,1.833A1.854,1.854,0,0,1,1430.97,930Zm13.06,0a1.834,1.834,0,1,1-1.87,1.833A1.845,1.845,0,0,1,1444.03,930Zm13.05,0a1.834,1.834,0,1,1-1.86,1.833A1.854,1.854,0,0,1,1457.08,930Zm13.06,0a1.834,1.834,0,1,1-1.87,1.833A1.845,1.845,0,0,1,1470.14,930Zm-65.28,9.778a1.833,1.833,0,1,1-1.86,1.833A1.854,1.854,0,0,1,1404.86,939.778Zm13.06,0a1.833,1.833,0,1,1-1.87,1.833A1.845,1.845,0,0,1,1417.92,939.778Zm13.05,0a1.833,1.833,0,1,1-1.86,1.833A1.854,1.854,0,0,1,1430.97,939.778Zm13.06,0a1.833,1.833,0,1,1-1.87,1.833A1.845,1.845,0,0,1,1444.03,939.778Zm13.05,0a1.833,1.833,0,1,1-1.86,1.833A1.854,1.854,0,0,1,1457.08,939.778Zm13.06,0a1.833,1.833,0,1,1-1.87,1.833A1.845,1.845,0,0,1,1470.14,939.778Zm-65.28,9.778a1.833,1.833,0,1,1-1.86,1.833A1.853,1.853,0,0,1,1404.86,949.556Zm13.06,0a1.833,1.833,0,1,1-1.87,1.833A1.844,1.844,0,0,1,1417.92,949.556Zm13.05,0a1.833,1.833,0,1,1-1.86,1.833A1.853,1.853,0,0,1,1430.97,949.556Zm13.06,0a1.833,1.833,0,1,1-1.87,1.833A1.844,1.844,0,0,1,1444.03,949.556Zm13.05,0a1.833,1.833,0,1,1-1.86,1.833A1.853,1.853,0,0,1,1457.08,949.556Zm13.06,0a1.833,1.833,0,1,1-1.87,1.833A1.844,1.844,0,0,1,1470.14,949.556Zm-65.28,9.777a1.834,1.834,0,1,1-1.86,1.834A1.854,1.854,0,0,1,1404.86,959.333Zm13.06,0a1.834,1.834,0,1,1-1.87,1.834A1.845,1.845,0,0,1,1417.92,959.333Zm13.05,0a1.834,1.834,0,1,1-1.86,1.834A1.854,1.854,0,0,1,1430.97,959.333Zm13.06,0a1.834,1.834,0,1,1-1.87,1.834A1.845,1.845,0,0,1,1444.03,959.333Zm13.05,0a1.834,1.834,0,1,1-1.86,1.834A1.854,1.854,0,0,1,1457.08,959.333Zm13.06,0a1.834,1.834,0,1,1-1.87,1.834A1.845,1.845,0,0,1,1470.14,959.333ZM1326.86,969a1.834,1.834,0,1,1-1.86,1.833A1.854,1.854,0,0,1,1326.86,969Zm13.06,0a1.834,1.834,0,1,1-1.87,1.833A1.845,1.845,0,0,1,1339.92,969Zm13.05,0a1.834,1.834,0,1,1-1.86,1.833A1.854,1.854,0,0,1,1352.97,969Zm13.06,0a1.834,1.834,0,1,1-1.87,1.833A1.845,1.845,0,0,1,1366.03,969Zm13.05,0a1.834,1.834,0,1,1-1.86,1.833A1.854,1.854,0,0,1,1379.08,969Zm13.06,0a1.834,1.834,0,1,1-1.87,1.833A1.845,1.845,0,0,1,1392.14,969Zm-65.28,9.778a1.833,1.833,0,1,1-1.86,1.833A1.854,1.854,0,0,1,1326.86,978.778Zm13.06,0a1.833,1.833,0,1,1-1.87,1.833A1.845,1.845,0,0,1,1339.92,978.778Zm13.05,0a1.833,1.833,0,1,1-1.86,1.833A1.854,1.854,0,0,1,1352.97,978.778Zm13.06,0a1.833,1.833,0,1,1-1.87,1.833A1.845,1.845,0,0,1,1366.03,978.778Zm13.05,0a1.833,1.833,0,1,1-1.86,1.833A1.854,1.854,0,0,1,1379.08,978.778Zm13.06,0a1.833,1.833,0,1,1-1.87,1.833A1.845,1.845,0,0,1,1392.14,978.778Zm-65.28,9.778a1.833,1.833,0,1,1-1.86,1.833A1.853,1.853,0,0,1,1326.86,988.556Zm13.06,0a1.833,1.833,0,1,1-1.87,1.833A1.844,1.844,0,0,1,1339.92,988.556Zm13.05,0a1.833,1.833,0,1,1-1.86,1.833A1.853,1.853,0,0,1,1352.97,988.556Zm13.06,0a1.833,1.833,0,1,1-1.87,1.833A1.844,1.844,0,0,1,1366.03,988.556Zm13.05,0a1.833,1.833,0,1,1-1.86,1.833A1.853,1.853,0,0,1,1379.08,988.556Zm13.06,0a1.833,1.833,0,1,1-1.87,1.833A1.844,1.844,0,0,1,1392.14,988.556Zm-65.28,9.777a1.834,1.834,0,1,1-1.86,1.837A1.855,1.855,0,0,1,1326.86,998.333Zm13.06,0a1.834,1.834,0,1,1-1.87,1.837A1.846,1.846,0,0,1,1339.92,998.333Zm13.05,0a1.834,1.834,0,1,1-1.86,1.837A1.855,1.855,0,0,1,1352.97,998.333Zm13.06,0a1.834,1.834,0,1,1-1.87,1.837A1.846,1.846,0,0,1,1366.03,998.333Zm13.05,0a1.834,1.834,0,1,1-1.86,1.837A1.855,1.855,0,0,1,1379.08,998.333Zm13.06,0a1.834,1.834,0,1,1-1.87,1.837A1.846,1.846,0,0,1,1392.14,998.333ZM1404.86,969a1.834,1.834,0,1,1-1.86,1.833A1.854,1.854,0,0,1,1404.86,969Zm13.06,0a1.834,1.834,0,1,1-1.87,1.833A1.845,1.845,0,0,1,1417.92,969Zm13.05,0a1.834,1.834,0,1,1-1.86,1.833A1.854,1.854,0,0,1,1430.97,969Zm13.06,0a1.834,1.834,0,1,1-1.87,1.833A1.845,1.845,0,0,1,1444.03,969Zm13.05,0a1.834,1.834,0,1,1-1.86,1.833A1.854,1.854,0,0,1,1457.08,969Zm13.06,0a1.834,1.834,0,1,1-1.87,1.833A1.845,1.845,0,0,1,1470.14,969Zm-65.28,9.778a1.833,1.833,0,1,1-1.86,1.833A1.854,1.854,0,0,1,1404.86,978.778Zm13.06,0a1.833,1.833,0,1,1-1.87,1.833A1.845,1.845,0,0,1,1417.92,978.778Zm13.05,0a1.833,1.833,0,1,1-1.86,1.833A1.854,1.854,0,0,1,1430.97,978.778Zm13.06,0a1.833,1.833,0,1,1-1.87,1.833A1.845,1.845,0,0,1,1444.03,978.778Zm13.05,0a1.833,1.833,0,1,1-1.86,1.833A1.854,1.854,0,0,1,1457.08,978.778Zm13.06,0a1.833,1.833,0,1,1-1.87,1.833A1.845,1.845,0,0,1,1470.14,978.778Zm-65.28,9.778a1.833,1.833,0,1,1-1.86,1.833A1.853,1.853,0,0,1,1404.86,988.556Zm13.06,0a1.833,1.833,0,1,1-1.87,1.833A1.844,1.844,0,0,1,1417.92,988.556Zm13.05,0a1.833,1.833,0,1,1-1.86,1.833A1.853,1.853,0,0,1,1430.97,988.556Zm13.06,0a1.833,1.833,0,1,1-1.87,1.833A1.844,1.844,0,0,1,1444.03,988.556Zm13.05,0a1.833,1.833,0,1,1-1.86,1.833A1.853,1.853,0,0,1,1457.08,988.556Zm13.06,0a1.833,1.833,0,1,1-1.87,1.833A1.844,1.844,0,0,1,1470.14,988.556Zm-65.28,9.777a1.834,1.834,0,1,1-1.86,1.837A1.855,1.855,0,0,1,1404.86,998.333Zm13.06,0a1.834,1.834,0,1,1-1.87,1.837A1.846,1.846,0,0,1,1417.92,998.333Zm13.05,0a1.834,1.834,0,1,1-1.86,1.837A1.855,1.855,0,0,1,1430.97,998.333Zm13.06,0a1.834,1.834,0,1,1-1.87,1.837A1.846,1.846,0,0,1,1444.03,998.333Zm13.05,0a1.834,1.834,0,1,1-1.86,1.837A1.855,1.855,0,0,1,1457.08,998.333Zm13.06,0a1.834,1.834,0,1,1-1.87,1.837A1.846,1.846,0,0,1,1470.14,998.333ZM1326.86,1008a1.835,1.835,0,1,1-1.86,1.83A1.853,1.853,0,0,1,1326.86,1008Zm13.06,0a1.835,1.835,0,1,1-1.87,1.83A1.844,1.844,0,0,1,1339.92,1008Zm13.05,0a1.835,1.835,0,1,1-1.86,1.83A1.853,1.853,0,0,1,1352.97,1008Zm13.06,0a1.835,1.835,0,1,1-1.87,1.83A1.844,1.844,0,0,1,1366.03,1008Zm13.05,0a1.835,1.835,0,1,1-1.86,1.83A1.853,1.853,0,0,1,1379.08,1008Zm13.06,0a1.835,1.835,0,1,1-1.87,1.83A1.844,1.844,0,0,1,1392.14,1008Zm-65.28,9.78a1.83,1.83,0,1,1-1.86,1.83A1.853,1.853,0,0,1,1326.86,1017.78Zm13.06,0a1.83,1.83,0,1,1-1.87,1.83A1.844,1.844,0,0,1,1339.92,1017.78Zm13.05,0a1.83,1.83,0,1,1-1.86,1.83A1.853,1.853,0,0,1,1352.97,1017.78Zm13.06,0a1.83,1.83,0,1,1-1.87,1.83A1.844,1.844,0,0,1,1366.03,1017.78Zm13.05,0a1.83,1.83,0,1,1-1.86,1.83A1.853,1.853,0,0,1,1379.08,1017.78Zm13.06,0a1.83,1.83,0,1,1-1.87,1.83A1.844,1.844,0,0,1,1392.14,1017.78Zm-65.28,9.78a1.83,1.83,0,1,1-1.86,1.83A1.853,1.853,0,0,1,1326.86,1027.56Zm13.06,0a1.83,1.83,0,1,1-1.87,1.83A1.844,1.844,0,0,1,1339.92,1027.56Zm13.05,0a1.83,1.83,0,1,1-1.86,1.83A1.853,1.853,0,0,1,1352.97,1027.56Zm13.06,0a1.83,1.83,0,1,1-1.87,1.83A1.844,1.844,0,0,1,1366.03,1027.56Zm13.05,0a1.83,1.83,0,1,1-1.86,1.83A1.853,1.853,0,0,1,1379.08,1027.56Zm13.06,0a1.83,1.83,0,1,1-1.87,1.83A1.844,1.844,0,0,1,1392.14,1027.56Zm-65.28,9.77a1.835,1.835,0,1,1-1.86,1.84A1.855,1.855,0,0,1,1326.86,1037.33Zm13.06,0a1.835,1.835,0,1,1-1.87,1.84A1.846,1.846,0,0,1,1339.92,1037.33Zm13.05,0a1.835,1.835,0,1,1-1.86,1.84A1.855,1.855,0,0,1,1352.97,1037.33Zm13.06,0a1.835,1.835,0,1,1-1.87,1.84A1.846,1.846,0,0,1,1366.03,1037.33Zm13.05,0a1.835,1.835,0,1,1-1.86,1.84A1.855,1.855,0,0,1,1379.08,1037.33Zm13.06,0a1.835,1.835,0,1,1-1.87,1.84A1.846,1.846,0,0,1,1392.14,1037.33Zm12.72-29.33a1.835,1.835,0,1,1-1.86,1.83A1.853,1.853,0,0,1,1404.86,1008Zm13.06,0a1.835,1.835,0,1,1-1.87,1.83A1.844,1.844,0,0,1,1417.92,1008Zm13.05,0a1.835,1.835,0,1,1-1.86,1.83A1.853,1.853,0,0,1,1430.97,1008Zm13.06,0a1.835,1.835,0,1,1-1.87,1.83A1.844,1.844,0,0,1,1444.03,1008Zm13.05,0a1.835,1.835,0,1,1-1.86,1.83A1.853,1.853,0,0,1,1457.08,1008Zm13.06,0a1.835,1.835,0,1,1-1.87,1.83A1.844,1.844,0,0,1,1470.14,1008Zm-65.28,9.78a1.83,1.83,0,1,1-1.86,1.83A1.853,1.853,0,0,1,1404.86,1017.78Zm13.06,0a1.83,1.83,0,1,1-1.87,1.83A1.844,1.844,0,0,1,1417.92,1017.78Zm13.05,0a1.83,1.83,0,1,1-1.86,1.83A1.853,1.853,0,0,1,1430.97,1017.78Zm13.06,0a1.83,1.83,0,1,1-1.87,1.83A1.844,1.844,0,0,1,1444.03,1017.78Zm13.05,0a1.83,1.83,0,1,1-1.86,1.83A1.853,1.853,0,0,1,1457.08,1017.78Zm13.06,0a1.83,1.83,0,1,1-1.87,1.83A1.844,1.844,0,0,1,1470.14,1017.78Zm-65.28,9.78a1.83,1.83,0,1,1-1.86,1.83A1.853,1.853,0,0,1,1404.86,1027.56Zm13.06,0a1.83,1.83,0,1,1-1.87,1.83A1.844,1.844,0,0,1,1417.92,1027.56Zm13.05,0a1.83,1.83,0,1,1-1.86,1.83A1.853,1.853,0,0,1,1430.97,1027.56Zm13.06,0a1.83,1.83,0,1,1-1.87,1.83A1.844,1.844,0,0,1,1444.03,1027.56Zm13.05,0a1.83,1.83,0,1,1-1.86,1.83A1.853,1.853,0,0,1,1457.08,1027.56Zm13.06,0a1.83,1.83,0,1,1-1.87,1.83A1.844,1.844,0,0,1,1470.14,1027.56Zm-65.28,9.77a1.835,1.835,0,1,1-1.86,1.84A1.855,1.855,0,0,1,1404.86,1037.33Zm13.06,0a1.835,1.835,0,1,1-1.87,1.84A1.846,1.846,0,0,1,1417.92,1037.33Zm13.05,0a1.835,1.835,0,1,1-1.86,1.84A1.855,1.855,0,0,1,1430.97,1037.33Zm13.06,0a1.835,1.835,0,1,1-1.87,1.84A1.846,1.846,0,0,1,1444.03,1037.33Zm13.05,0a1.835,1.835,0,1,1-1.86,1.84A1.855,1.855,0,0,1,1457.08,1037.33Zm13.06,0a1.835,1.835,0,1,1-1.87,1.84A1.846,1.846,0,0,1,1470.14,1037.33ZM1326.86,1047a1.835,1.835,0,1,1-1.86,1.83A1.853,1.853,0,0,1,1326.86,1047Zm13.06,0a1.835,1.835,0,1,1-1.87,1.83A1.844,1.844,0,0,1,1339.92,1047Zm13.05,0a1.835,1.835,0,1,1-1.86,1.83A1.853,1.853,0,0,1,1352.97,1047Zm13.06,0a1.835,1.835,0,1,1-1.87,1.83A1.844,1.844,0,0,1,1366.03,1047Zm13.05,0a1.835,1.835,0,1,1-1.86,1.83A1.853,1.853,0,0,1,1379.08,1047Zm13.06,0a1.835,1.835,0,1,1-1.87,1.83A1.844,1.844,0,0,1,1392.14,1047Zm-65.28,9.78a1.83,1.83,0,1,1-1.86,1.83A1.853,1.853,0,0,1,1326.86,1056.78Zm13.06,0a1.83,1.83,0,1,1-1.87,1.83A1.844,1.844,0,0,1,1339.92,1056.78Zm13.05,0a1.83,1.83,0,1,1-1.86,1.83A1.853,1.853,0,0,1,1352.97,1056.78Zm13.06,0a1.83,1.83,0,1,1-1.87,1.83A1.844,1.844,0,0,1,1366.03,1056.78Zm13.05,0a1.83,1.83,0,1,1-1.86,1.83A1.853,1.853,0,0,1,1379.08,1056.78Zm13.06,0a1.83,1.83,0,1,1-1.87,1.83A1.844,1.844,0,0,1,1392.14,1056.78Zm-65.28,9.78a1.83,1.83,0,1,1-1.86,1.83A1.853,1.853,0,0,1,1326.86,1066.56Zm13.06,0a1.83,1.83,0,1,1-1.87,1.83A1.844,1.844,0,0,1,1339.92,1066.56Zm13.05,0a1.83,1.83,0,1,1-1.86,1.83A1.853,1.853,0,0,1,1352.97,1066.56Zm13.06,0a1.83,1.83,0,1,1-1.87,1.83A1.844,1.844,0,0,1,1366.03,1066.56Zm13.05,0a1.83,1.83,0,1,1-1.86,1.83A1.853,1.853,0,0,1,1379.08,1066.56Zm13.06,0a1.83,1.83,0,1,1-1.87,1.83A1.844,1.844,0,0,1,1392.14,1066.56Zm-65.28,9.77a1.835,1.835,0,1,1-1.86,1.84A1.855,1.855,0,0,1,1326.86,1076.33Zm13.06,0a1.835,1.835,0,1,1-1.87,1.84A1.846,1.846,0,0,1,1339.92,1076.33Zm13.05,0a1.835,1.835,0,1,1-1.86,1.84A1.855,1.855,0,0,1,1352.97,1076.33Zm13.06,0a1.835,1.835,0,1,1-1.87,1.84A1.846,1.846,0,0,1,1366.03,1076.33Zm13.05,0a1.835,1.835,0,1,1-1.86,1.84A1.855,1.855,0,0,1,1379.08,1076.33Zm13.06,0a1.835,1.835,0,1,1-1.87,1.84A1.846,1.846,0,0,1,1392.14,1076.33Zm12.72-29.33a1.835,1.835,0,1,1-1.86,1.83A1.853,1.853,0,0,1,1404.86,1047Zm13.06,0a1.835,1.835,0,1,1-1.87,1.83A1.844,1.844,0,0,1,1417.92,1047Zm13.05,0a1.835,1.835,0,1,1-1.86,1.83A1.853,1.853,0,0,1,1430.97,1047Zm13.06,0a1.835,1.835,0,1,1-1.87,1.83A1.844,1.844,0,0,1,1444.03,1047Zm13.05,0a1.835,1.835,0,1,1-1.86,1.83A1.853,1.853,0,0,1,1457.08,1047Zm13.06,0a1.835,1.835,0,1,1-1.87,1.83A1.844,1.844,0,0,1,1470.14,1047Zm-65.28,9.78a1.83,1.83,0,1,1-1.86,1.83A1.853,1.853,0,0,1,1404.86,1056.78Zm13.06,0a1.83,1.83,0,1,1-1.87,1.83A1.844,1.844,0,0,1,1417.92,1056.78Zm13.05,0a1.83,1.83,0,1,1-1.86,1.83A1.853,1.853,0,0,1,1430.97,1056.78Zm13.06,0a1.83,1.83,0,1,1-1.87,1.83A1.844,1.844,0,0,1,1444.03,1056.78Zm13.05,0a1.83,1.83,0,1,1-1.86,1.83A1.853,1.853,0,0,1,1457.08,1056.78Zm13.06,0a1.83,1.83,0,1,1-1.87,1.83A1.844,1.844,0,0,1,1470.14,1056.78Zm-65.28,9.78a1.83,1.83,0,1,1-1.86,1.83A1.853,1.853,0,0,1,1404.86,1066.56Zm13.06,0a1.83,1.83,0,1,1-1.87,1.83A1.844,1.844,0,0,1,1417.92,1066.56Zm13.05,0a1.83,1.83,0,1,1-1.86,1.83A1.853,1.853,0,0,1,1430.97,1066.56Zm13.06,0a1.83,1.83,0,1,1-1.87,1.83A1.844,1.844,0,0,1,1444.03,1066.56Zm13.05,0a1.83,1.83,0,1,1-1.86,1.83A1.853,1.853,0,0,1,1457.08,1066.56Zm13.06,0a1.83,1.83,0,1,1-1.87,1.83A1.844,1.844,0,0,1,1470.14,1066.56Zm-65.28,9.77a1.835,1.835,0,1,1-1.86,1.84A1.855,1.855,0,0,1,1404.86,1076.33Zm13.06,0a1.835,1.835,0,1,1-1.87,1.84A1.846,1.846,0,0,1,1417.92,1076.33Zm13.05,0a1.835,1.835,0,1,1-1.86,1.84A1.855,1.855,0,0,1,1430.97,1076.33Zm13.06,0a1.835,1.835,0,1,1-1.87,1.84A1.846,1.846,0,0,1,1444.03,1076.33Zm13.05,0a1.835,1.835,0,1,1-1.86,1.84A1.855,1.855,0,0,1,1457.08,1076.33Zm13.06,0a1.835,1.835,0,1,1-1.87,1.84A1.846,1.846,0,0,1,1470.14,1076.33ZM1482.86,930a1.834,1.834,0,1,1-1.86,1.833A1.854,1.854,0,0,1,1482.86,930Zm13.06,0a1.834,1.834,0,1,1-1.87,1.833A1.845,1.845,0,0,1,1495.92,930Zm13.05,0a1.834,1.834,0,1,1-1.86,1.833A1.854,1.854,0,0,1,1508.97,930Zm13.06,0a1.834,1.834,0,1,1-1.87,1.833A1.845,1.845,0,0,1,1522.03,930Zm13.05,0a1.834,1.834,0,1,1-1.86,1.833A1.854,1.854,0,0,1,1535.08,930Zm13.06,0a1.834,1.834,0,1,1-1.87,1.833A1.845,1.845,0,0,1,1548.14,930Zm-65.28,9.778a1.833,1.833,0,1,1-1.86,1.833A1.854,1.854,0,0,1,1482.86,939.778Zm13.06,0a1.833,1.833,0,1,1-1.87,1.833A1.845,1.845,0,0,1,1495.92,939.778Zm13.05,0a1.833,1.833,0,1,1-1.86,1.833A1.854,1.854,0,0,1,1508.97,939.778Zm13.06,0a1.833,1.833,0,1,1-1.87,1.833A1.845,1.845,0,0,1,1522.03,939.778Zm13.05,0a1.833,1.833,0,1,1-1.86,1.833A1.854,1.854,0,0,1,1535.08,939.778Zm13.06,0a1.833,1.833,0,1,1-1.87,1.833A1.845,1.845,0,0,1,1548.14,939.778Zm-65.28,9.778a1.833,1.833,0,1,1-1.86,1.833A1.853,1.853,0,0,1,1482.86,949.556Zm13.06,0a1.833,1.833,0,1,1-1.87,1.833A1.844,1.844,0,0,1,1495.92,949.556Zm13.05,0a1.833,1.833,0,1,1-1.86,1.833A1.853,1.853,0,0,1,1508.97,949.556Zm13.06,0a1.833,1.833,0,1,1-1.87,1.833A1.844,1.844,0,0,1,1522.03,949.556Zm13.05,0a1.833,1.833,0,1,1-1.86,1.833A1.853,1.853,0,0,1,1535.08,949.556Zm13.06,0a1.833,1.833,0,1,1-1.87,1.833A1.844,1.844,0,0,1,1548.14,949.556Zm-65.28,9.777a1.834,1.834,0,1,1-1.86,1.834A1.854,1.854,0,0,1,1482.86,959.333Zm13.06,0a1.834,1.834,0,1,1-1.87,1.834A1.845,1.845,0,0,1,1495.92,959.333Zm13.05,0a1.834,1.834,0,1,1-1.86,1.834A1.854,1.854,0,0,1,1508.97,959.333Zm13.06,0a1.834,1.834,0,1,1-1.87,1.834A1.845,1.845,0,0,1,1522.03,959.333Zm13.05,0a1.834,1.834,0,1,1-1.86,1.834A1.854,1.854,0,0,1,1535.08,959.333Zm13.06,0a1.834,1.834,0,1,1-1.87,1.834A1.845,1.845,0,0,1,1548.14,959.333ZM1560.86,930a1.834,1.834,0,1,1-1.86,1.833A1.854,1.854,0,0,1,1560.86,930Zm13.06,0a1.834,1.834,0,1,1-1.87,1.833A1.845,1.845,0,0,1,1573.92,930Zm13.05,0a1.834,1.834,0,1,1-1.86,1.833A1.854,1.854,0,0,1,1586.97,930Zm13.06,0a1.834,1.834,0,1,1-1.87,1.833A1.845,1.845,0,0,1,1600.03,930Zm13.05,0a1.834,1.834,0,1,1-1.86,1.833A1.854,1.854,0,0,1,1613.08,930Zm13.06,0a1.834,1.834,0,1,1-1.87,1.833A1.845,1.845,0,0,1,1626.14,930Zm-65.28,9.778a1.833,1.833,0,1,1-1.86,1.833A1.854,1.854,0,0,1,1560.86,939.778Zm13.06,0a1.833,1.833,0,1,1-1.87,1.833A1.845,1.845,0,0,1,1573.92,939.778Zm13.05,0a1.833,1.833,0,1,1-1.86,1.833A1.854,1.854,0,0,1,1586.97,939.778Zm13.06,0a1.833,1.833,0,1,1-1.87,1.833A1.845,1.845,0,0,1,1600.03,939.778Zm13.05,0a1.833,1.833,0,1,1-1.86,1.833A1.854,1.854,0,0,1,1613.08,939.778Zm13.06,0a1.833,1.833,0,1,1-1.87,1.833A1.845,1.845,0,0,1,1626.14,939.778Zm-65.28,9.778a1.833,1.833,0,1,1-1.86,1.833A1.853,1.853,0,0,1,1560.86,949.556Zm13.06,0a1.833,1.833,0,1,1-1.87,1.833A1.844,1.844,0,0,1,1573.92,949.556Zm13.05,0a1.833,1.833,0,1,1-1.86,1.833A1.853,1.853,0,0,1,1586.97,949.556Zm13.06,0a1.833,1.833,0,1,1-1.87,1.833A1.844,1.844,0,0,1,1600.03,949.556Zm13.05,0a1.833,1.833,0,1,1-1.86,1.833A1.853,1.853,0,0,1,1613.08,949.556Zm13.06,0a1.833,1.833,0,1,1-1.87,1.833A1.844,1.844,0,0,1,1626.14,949.556Zm-65.28,9.777a1.834,1.834,0,1,1-1.86,1.834A1.854,1.854,0,0,1,1560.86,959.333Zm13.06,0a1.834,1.834,0,1,1-1.87,1.834A1.845,1.845,0,0,1,1573.92,959.333Zm13.05,0a1.834,1.834,0,1,1-1.86,1.834A1.854,1.854,0,0,1,1586.97,959.333Zm13.06,0a1.834,1.834,0,1,1-1.87,1.834A1.845,1.845,0,0,1,1600.03,959.333Zm13.05,0a1.834,1.834,0,1,1-1.86,1.834A1.854,1.854,0,0,1,1613.08,959.333Zm13.06,0a1.834,1.834,0,1,1-1.87,1.834A1.845,1.845,0,0,1,1626.14,959.333ZM1482.86,969a1.834,1.834,0,1,1-1.86,1.833A1.854,1.854,0,0,1,1482.86,969Zm13.06,0a1.834,1.834,0,1,1-1.87,1.833A1.845,1.845,0,0,1,1495.92,969Zm13.05,0a1.834,1.834,0,1,1-1.86,1.833A1.854,1.854,0,0,1,1508.97,969Zm13.06,0a1.834,1.834,0,1,1-1.87,1.833A1.845,1.845,0,0,1,1522.03,969Zm13.05,0a1.834,1.834,0,1,1-1.86,1.833A1.854,1.854,0,0,1,1535.08,969Zm13.06,0a1.834,1.834,0,1,1-1.87,1.833A1.845,1.845,0,0,1,1548.14,969Zm-65.28,9.778a1.833,1.833,0,1,1-1.86,1.833A1.854,1.854,0,0,1,1482.86,978.778Zm13.06,0a1.833,1.833,0,1,1-1.87,1.833A1.845,1.845,0,0,1,1495.92,978.778Zm13.05,0a1.833,1.833,0,1,1-1.86,1.833A1.854,1.854,0,0,1,1508.97,978.778Zm13.06,0a1.833,1.833,0,1,1-1.87,1.833A1.845,1.845,0,0,1,1522.03,978.778Zm13.05,0a1.833,1.833,0,1,1-1.86,1.833A1.854,1.854,0,0,1,1535.08,978.778Zm13.06,0a1.833,1.833,0,1,1-1.87,1.833A1.845,1.845,0,0,1,1548.14,978.778Zm-65.28,9.778a1.833,1.833,0,1,1-1.86,1.833A1.853,1.853,0,0,1,1482.86,988.556Zm13.06,0a1.833,1.833,0,1,1-1.87,1.833A1.844,1.844,0,0,1,1495.92,988.556Zm13.05,0a1.833,1.833,0,1,1-1.86,1.833A1.853,1.853,0,0,1,1508.97,988.556Zm13.06,0a1.833,1.833,0,1,1-1.87,1.833A1.844,1.844,0,0,1,1522.03,988.556Zm13.05,0a1.833,1.833,0,1,1-1.86,1.833A1.853,1.853,0,0,1,1535.08,988.556Zm13.06,0a1.833,1.833,0,1,1-1.87,1.833A1.844,1.844,0,0,1,1548.14,988.556Zm-65.28,9.777a1.834,1.834,0,1,1-1.86,1.837A1.855,1.855,0,0,1,1482.86,998.333Zm13.06,0a1.834,1.834,0,1,1-1.87,1.837A1.846,1.846,0,0,1,1495.92,998.333Zm13.05,0a1.834,1.834,0,1,1-1.86,1.837A1.855,1.855,0,0,1,1508.97,998.333Zm13.06,0a1.834,1.834,0,1,1-1.87,1.837A1.846,1.846,0,0,1,1522.03,998.333Zm13.05,0a1.834,1.834,0,1,1-1.86,1.837A1.855,1.855,0,0,1,1535.08,998.333Zm13.06,0a1.834,1.834,0,1,1-1.87,1.837A1.846,1.846,0,0,1,1548.14,998.333ZM1560.86,969a1.834,1.834,0,1,1-1.86,1.833A1.854,1.854,0,0,1,1560.86,969Zm13.06,0a1.834,1.834,0,1,1-1.87,1.833A1.845,1.845,0,0,1,1573.92,969Zm13.05,0a1.834,1.834,0,1,1-1.86,1.833A1.854,1.854,0,0,1,1586.97,969Zm13.06,0a1.834,1.834,0,1,1-1.87,1.833A1.845,1.845,0,0,1,1600.03,969Zm13.05,0a1.834,1.834,0,1,1-1.86,1.833A1.854,1.854,0,0,1,1613.08,969Zm13.06,0a1.834,1.834,0,1,1-1.87,1.833A1.845,1.845,0,0,1,1626.14,969Zm-65.28,9.778a1.833,1.833,0,1,1-1.86,1.833A1.854,1.854,0,0,1,1560.86,978.778Zm13.06,0a1.833,1.833,0,1,1-1.87,1.833A1.845,1.845,0,0,1,1573.92,978.778Zm13.05,0a1.833,1.833,0,1,1-1.86,1.833A1.854,1.854,0,0,1,1586.97,978.778Zm13.06,0a1.833,1.833,0,1,1-1.87,1.833A1.845,1.845,0,0,1,1600.03,978.778Zm13.05,0a1.833,1.833,0,1,1-1.86,1.833A1.854,1.854,0,0,1,1613.08,978.778Zm13.06,0a1.833,1.833,0,1,1-1.87,1.833A1.845,1.845,0,0,1,1626.14,978.778Zm-65.28,9.778a1.833,1.833,0,1,1-1.86,1.833A1.853,1.853,0,0,1,1560.86,988.556Zm13.06,0a1.833,1.833,0,1,1-1.87,1.833A1.844,1.844,0,0,1,1573.92,988.556Zm13.05,0a1.833,1.833,0,1,1-1.86,1.833A1.853,1.853,0,0,1,1586.97,988.556Zm13.06,0a1.833,1.833,0,1,1-1.87,1.833A1.844,1.844,0,0,1,1600.03,988.556Zm13.05,0a1.833,1.833,0,1,1-1.86,1.833A1.853,1.853,0,0,1,1613.08,988.556Zm13.06,0a1.833,1.833,0,1,1-1.87,1.833A1.844,1.844,0,0,1,1626.14,988.556Zm-65.28,9.777a1.834,1.834,0,1,1-1.86,1.837A1.855,1.855,0,0,1,1560.86,998.333Zm13.06,0a1.834,1.834,0,1,1-1.87,1.837A1.846,1.846,0,0,1,1573.92,998.333Zm13.05,0a1.834,1.834,0,1,1-1.86,1.837A1.855,1.855,0,0,1,1586.97,998.333Zm13.06,0a1.834,1.834,0,1,1-1.87,1.837A1.846,1.846,0,0,1,1600.03,998.333Zm13.05,0a1.834,1.834,0,1,1-1.86,1.837A1.855,1.855,0,0,1,1613.08,998.333Zm13.06,0a1.834,1.834,0,1,1-1.87,1.837A1.846,1.846,0,0,1,1626.14,998.333ZM1482.86,1008a1.835,1.835,0,1,1-1.86,1.83A1.853,1.853,0,0,1,1482.86,1008Zm13.06,0a1.835,1.835,0,1,1-1.87,1.83A1.844,1.844,0,0,1,1495.92,1008Zm13.05,0a1.835,1.835,0,1,1-1.86,1.83A1.853,1.853,0,0,1,1508.97,1008Zm13.06,0a1.835,1.835,0,1,1-1.87,1.83A1.844,1.844,0,0,1,1522.03,1008Zm13.05,0a1.835,1.835,0,1,1-1.86,1.83A1.853,1.853,0,0,1,1535.08,1008Zm13.06,0a1.835,1.835,0,1,1-1.87,1.83A1.844,1.844,0,0,1,1548.14,1008Zm-65.28,9.78a1.83,1.83,0,1,1-1.86,1.83A1.853,1.853,0,0,1,1482.86,1017.78Zm13.06,0a1.83,1.83,0,1,1-1.87,1.83A1.844,1.844,0,0,1,1495.92,1017.78Zm13.05,0a1.83,1.83,0,1,1-1.86,1.83A1.853,1.853,0,0,1,1508.97,1017.78Zm13.06,0a1.83,1.83,0,1,1-1.87,1.83A1.844,1.844,0,0,1,1522.03,1017.78Zm13.05,0a1.83,1.83,0,1,1-1.86,1.83A1.853,1.853,0,0,1,1535.08,1017.78Zm13.06,0a1.83,1.83,0,1,1-1.87,1.83A1.844,1.844,0,0,1,1548.14,1017.78Zm-65.28,9.78a1.83,1.83,0,1,1-1.86,1.83A1.853,1.853,0,0,1,1482.86,1027.56Zm13.06,0a1.83,1.83,0,1,1-1.87,1.83A1.844,1.844,0,0,1,1495.92,1027.56Zm13.05,0a1.83,1.83,0,1,1-1.86,1.83A1.853,1.853,0,0,1,1508.97,1027.56Zm13.06,0a1.83,1.83,0,1,1-1.87,1.83A1.844,1.844,0,0,1,1522.03,1027.56Zm13.05,0a1.83,1.83,0,1,1-1.86,1.83A1.853,1.853,0,0,1,1535.08,1027.56Zm13.06,0a1.83,1.83,0,1,1-1.87,1.83A1.844,1.844,0,0,1,1548.14,1027.56Zm-65.28,9.77a1.835,1.835,0,1,1-1.86,1.84A1.855,1.855,0,0,1,1482.86,1037.33Zm13.06,0a1.835,1.835,0,1,1-1.87,1.84A1.846,1.846,0,0,1,1495.92,1037.33Zm13.05,0a1.835,1.835,0,1,1-1.86,1.84A1.855,1.855,0,0,1,1508.97,1037.33Zm13.06,0a1.835,1.835,0,1,1-1.87,1.84A1.846,1.846,0,0,1,1522.03,1037.33Zm13.05,0a1.835,1.835,0,1,1-1.86,1.84A1.855,1.855,0,0,1,1535.08,1037.33Zm13.06,0a1.835,1.835,0,1,1-1.87,1.84A1.846,1.846,0,0,1,1548.14,1037.33Zm12.72-29.33a1.835,1.835,0,1,1-1.86,1.83A1.853,1.853,0,0,1,1560.86,1008Zm13.06,0a1.835,1.835,0,1,1-1.87,1.83A1.844,1.844,0,0,1,1573.92,1008Zm13.05,0a1.835,1.835,0,1,1-1.86,1.83A1.853,1.853,0,0,1,1586.97,1008Zm13.06,0a1.835,1.835,0,1,1-1.87,1.83A1.844,1.844,0,0,1,1600.03,1008Zm13.05,0a1.835,1.835,0,1,1-1.86,1.83A1.853,1.853,0,0,1,1613.08,1008Zm13.06,0a1.835,1.835,0,1,1-1.87,1.83A1.844,1.844,0,0,1,1626.14,1008Zm-65.28,9.78a1.83,1.83,0,1,1-1.86,1.83A1.853,1.853,0,0,1,1560.86,1017.78Zm13.06,0a1.83,1.83,0,1,1-1.87,1.83A1.844,1.844,0,0,1,1573.92,1017.78Zm13.05,0a1.83,1.83,0,1,1-1.86,1.83A1.853,1.853,0,0,1,1586.97,1017.78Zm13.06,0a1.83,1.83,0,1,1-1.87,1.83A1.844,1.844,0,0,1,1600.03,1017.78Zm13.05,0a1.83,1.83,0,1,1-1.86,1.83A1.853,1.853,0,0,1,1613.08,1017.78Zm13.06,0a1.83,1.83,0,1,1-1.87,1.83A1.844,1.844,0,0,1,1626.14,1017.78Zm-65.28,9.78a1.83,1.83,0,1,1-1.86,1.83A1.853,1.853,0,0,1,1560.86,1027.56Zm13.06,0a1.83,1.83,0,1,1-1.87,1.83A1.844,1.844,0,0,1,1573.92,1027.56Zm13.05,0a1.83,1.83,0,1,1-1.86,1.83A1.853,1.853,0,0,1,1586.97,1027.56Zm13.06,0a1.83,1.83,0,1,1-1.87,1.83A1.844,1.844,0,0,1,1600.03,1027.56Zm13.05,0a1.83,1.83,0,1,1-1.86,1.83A1.853,1.853,0,0,1,1613.08,1027.56Zm13.06,0a1.83,1.83,0,1,1-1.87,1.83A1.844,1.844,0,0,1,1626.14,1027.56Zm-65.28,9.77a1.835,1.835,0,1,1-1.86,1.84A1.855,1.855,0,0,1,1560.86,1037.33Zm13.06,0a1.835,1.835,0,1,1-1.87,1.84A1.846,1.846,0,0,1,1573.92,1037.33Zm13.05,0a1.835,1.835,0,1,1-1.86,1.84A1.855,1.855,0,0,1,1586.97,1037.33Zm13.06,0a1.835,1.835,0,1,1-1.87,1.84A1.846,1.846,0,0,1,1600.03,1037.33Zm13.05,0a1.835,1.835,0,1,1-1.86,1.84A1.855,1.855,0,0,1,1613.08,1037.33Zm13.06,0a1.835,1.835,0,1,1-1.87,1.84A1.846,1.846,0,0,1,1626.14,1037.33ZM1482.86,1047a1.835,1.835,0,1,1-1.86,1.83A1.853,1.853,0,0,1,1482.86,1047Zm13.06,0a1.835,1.835,0,1,1-1.87,1.83A1.844,1.844,0,0,1,1495.92,1047Zm13.05,0a1.835,1.835,0,1,1-1.86,1.83A1.853,1.853,0,0,1,1508.97,1047Zm13.06,0a1.835,1.835,0,1,1-1.87,1.83A1.844,1.844,0,0,1,1522.03,1047Zm13.05,0a1.835,1.835,0,1,1-1.86,1.83A1.853,1.853,0,0,1,1535.08,1047Zm13.06,0a1.835,1.835,0,1,1-1.87,1.83A1.844,1.844,0,0,1,1548.14,1047Zm-65.28,9.78a1.83,1.83,0,1,1-1.86,1.83A1.853,1.853,0,0,1,1482.86,1056.78Zm13.06,0a1.83,1.83,0,1,1-1.87,1.83A1.844,1.844,0,0,1,1495.92,1056.78Zm13.05,0a1.83,1.83,0,1,1-1.86,1.83A1.853,1.853,0,0,1,1508.97,1056.78Zm13.06,0a1.83,1.83,0,1,1-1.87,1.83A1.844,1.844,0,0,1,1522.03,1056.78Zm13.05,0a1.83,1.83,0,1,1-1.86,1.83A1.853,1.853,0,0,1,1535.08,1056.78Zm13.06,0a1.83,1.83,0,1,1-1.87,1.83A1.844,1.844,0,0,1,1548.14,1056.78Zm-65.28,9.78a1.83,1.83,0,1,1-1.86,1.83A1.853,1.853,0,0,1,1482.86,1066.56Zm13.06,0a1.83,1.83,0,1,1-1.87,1.83A1.844,1.844,0,0,1,1495.92,1066.56Zm13.05,0a1.83,1.83,0,1,1-1.86,1.83A1.853,1.853,0,0,1,1508.97,1066.56Zm13.06,0a1.83,1.83,0,1,1-1.87,1.83A1.844,1.844,0,0,1,1522.03,1066.56Zm13.05,0a1.83,1.83,0,1,1-1.86,1.83A1.853,1.853,0,0,1,1535.08,1066.56Zm13.06,0a1.83,1.83,0,1,1-1.87,1.83A1.844,1.844,0,0,1,1548.14,1066.56Zm-65.28,9.77a1.835,1.835,0,1,1-1.86,1.84A1.855,1.855,0,0,1,1482.86,1076.33Zm13.06,0a1.835,1.835,0,1,1-1.87,1.84A1.846,1.846,0,0,1,1495.92,1076.33Zm13.05,0a1.835,1.835,0,1,1-1.86,1.84A1.855,1.855,0,0,1,1508.97,1076.33Zm13.06,0a1.835,1.835,0,1,1-1.87,1.84A1.846,1.846,0,0,1,1522.03,1076.33Zm13.05,0a1.835,1.835,0,1,1-1.86,1.84A1.855,1.855,0,0,1,1535.08,1076.33Zm13.06,0a1.835,1.835,0,1,1-1.87,1.84A1.846,1.846,0,0,1,1548.14,1076.33Zm12.72-29.33a1.835,1.835,0,1,1-1.86,1.83A1.853,1.853,0,0,1,1560.86,1047Zm13.06,0a1.835,1.835,0,1,1-1.87,1.83A1.844,1.844,0,0,1,1573.92,1047Zm13.05,0a1.835,1.835,0,1,1-1.86,1.83A1.853,1.853,0,0,1,1586.97,1047Zm13.06,0a1.835,1.835,0,1,1-1.87,1.83A1.844,1.844,0,0,1,1600.03,1047Zm13.05,0a1.835,1.835,0,1,1-1.86,1.83A1.853,1.853,0,0,1,1613.08,1047Zm13.06,0a1.835,1.835,0,1,1-1.87,1.83A1.844,1.844,0,0,1,1626.14,1047Zm-65.28,9.78a1.83,1.83,0,1,1-1.86,1.83A1.853,1.853,0,0,1,1560.86,1056.78Zm13.06,0a1.83,1.83,0,1,1-1.87,1.83A1.844,1.844,0,0,1,1573.92,1056.78Zm13.05,0a1.83,1.83,0,1,1-1.86,1.83A1.853,1.853,0,0,1,1586.97,1056.78Zm13.06,0a1.83,1.83,0,1,1-1.87,1.83A1.844,1.844,0,0,1,1600.03,1056.78Zm13.05,0a1.83,1.83,0,1,1-1.86,1.83A1.853,1.853,0,0,1,1613.08,1056.78Zm13.06,0a1.83,1.83,0,1,1-1.87,1.83A1.844,1.844,0,0,1,1626.14,1056.78Zm-65.28,9.78a1.83,1.83,0,1,1-1.86,1.83A1.853,1.853,0,0,1,1560.86,1066.56Zm13.06,0a1.83,1.83,0,1,1-1.87,1.83A1.844,1.844,0,0,1,1573.92,1066.56Zm13.05,0a1.83,1.83,0,1,1-1.86,1.83A1.853,1.853,0,0,1,1586.97,1066.56Zm13.06,0a1.83,1.83,0,1,1-1.87,1.83A1.844,1.844,0,0,1,1600.03,1066.56Zm13.05,0a1.83,1.83,0,1,1-1.86,1.83A1.853,1.853,0,0,1,1613.08,1066.56Zm13.06,0a1.83,1.83,0,1,1-1.87,1.83A1.844,1.844,0,0,1,1626.14,1066.56Zm-65.28,9.77a1.835,1.835,0,1,1-1.86,1.84A1.855,1.855,0,0,1,1560.86,1076.33Zm13.06,0a1.835,1.835,0,1,1-1.87,1.84A1.846,1.846,0,0,1,1573.92,1076.33Zm13.05,0a1.835,1.835,0,1,1-1.86,1.84A1.855,1.855,0,0,1,1586.97,1076.33Zm13.06,0a1.835,1.835,0,1,1-1.87,1.84A1.846,1.846,0,0,1,1600.03,1076.33Zm13.05,0a1.835,1.835,0,1,1-1.86,1.84A1.855,1.855,0,0,1,1613.08,1076.33Zm13.06,0a1.835,1.835,0,1,1-1.87,1.84A1.846,1.846,0,0,1,1626.14,1076.33Z" transform="translate(-1325 -930)"/>
</svg>
